<svg xmlns="http://www.w3.org/2000/svg" viewBox="0 0 1370.08 159.39"><defs><style>.cls-1{fill:#fff;}</style></defs><title>logo</title><g id="Capa_2" data-name="Capa 2"><g id="Modo_de_aislamiento" data-name="Modo de aislamiento"><path class="cls-1" d="M139.76,130.05c-13.4,19.18-35.81,29.34-63.07,29.34-21,0-41.12-7.39-54.51-20.56C8.08,125,0,104,0,81.08,0,58,7.62,38.81,20.79,24,35.57,7.62,55.44,0,76.92,0a103.15,103.15,0,0,1,27.49,3.46c4.85,1.39,12,4.16,15.94,4.16A10,10,0,0,0,130.05,0h4.62l2.08,52.44h-5.31c-2.77-12.71-6.24-19.41-12-25.64C109.26,15.94,97.25,9.24,82.24,9.24,47.36,9.24,26.8,37.42,26.8,77.39c0,25.41,5.77,43.42,16.63,55.21,10.16,10.85,25.18,16.63,41.12,16.63,20.79,0,33.49-6.93,50.82-23.33Z"/><path class="cls-1" d="M276.05,156.16v-4.39c8.32,0,9.93-.46,12.71-2.08a6.73,6.73,0,0,0,3.23-5.54c0-3.47-1.62-9.71-4.39-16.17l-9.47-21.72H217.61L207,132.6a30.65,30.65,0,0,0-2.08,9.7c0,7.16,5.08,9.47,16.17,9.47v4.39h-46v-4.39c13.4-1.39,15.48-6.24,29.11-38.58L251.8.46h4.62l56.82,130.06c6.47,15,9.7,19.86,21.72,21.25v4.39Zm-28-122.9L221.53,96.79H274.9Z"/><path class="cls-1" d="M481.18,156.16,426.2,85l-12.93.46v44.82c0,17.55,2.77,20.32,20.55,21.48v4.39H370.07v-4.39c17.32-1.39,19.63-3.93,19.63-24.26V28.88c0-17.1-1.84-19.87-19.63-21.26V3.23H432.9c22,0,38.35,5.55,48.28,13.63,7.62,6.24,11.32,17.56,11.32,27.72,0,20.1-12.94,33.5-41.81,37.89l46.2,58.44c6.7,8.55,11.55,9.93,21.71,10.86v4.39ZM413.27,76.92c22.17-.46,30.26-2.08,40.88-7.85,8.32-4.62,13.17-14.78,13.17-26.33,0-20.79-13.63-31-42.27-31-7.86,0-11.78,1.62-11.78,9.7Z"/><path class="cls-1" d="M614,3.23c29.8,0,53.59,7.4,69.3,21,15,12.94,22.87,31,22.87,54.75,0,27.49-10.86,49.21-31.42,62.37-14.32,9.24-34.88,14.79-58.21,14.79H551.64v-4.39c18-1.16,20.33-4.16,20.33-22.18V29.11c0-18.25-2.78-20.33-20.33-21.49V3.23ZM595.53,136.75c0,8.09,2.08,10.86,11.09,10.86,23.79,0,36.49-2.77,50.35-12,16.17-10.86,24-29.11,24-55.21,0-24-7.39-40-22-52.67-13.63-12-28.18-15.94-51.28-15.94-8.78,0-12.24,2.08-12.24,9.7Z"/><path class="cls-1" d="M746.6,156.16v-4.39C766,151.08,769,148.3,769,130.29V28.88c0-18.25-2.77-20.1-22.41-21.26V3.23h68.61V7.62c-19.4.93-22.64,3.7-22.64,21.26V130.29c0,17.32,3.7,20.79,22.64,21.48v4.39Z"/><path class="cls-1" d="M1010.41,7.62c-8.78.93-12.24,1.62-15.25,4.16-4.39,3.93-6.7,9-6.7,27.26V158.7H984.3L882.43,31.88v89.63c0,23.79,3.7,27.72,21.49,30.26v4.39H849.86v-4.39c18.94-2.08,22.41-5.55,22.41-30.26V19.87c-7.62-9.47-11.09-12.25-22.41-12.25V3.23h39.27L978.3,114.81V36.27c0-11.78-.93-18.71-4.39-22.64-3.93-4.39-8.09-4.85-18.25-6V3.23h54.75Z"/><path class="cls-1" d="M1141.85,156.16v-4.39c8.32,0,9.93-.46,12.7-2.08a6.71,6.71,0,0,0,3.24-5.54c0-3.47-1.62-9.71-4.39-16.17l-9.47-21.72h-60.52l-10.63,26.34a30.37,30.37,0,0,0-2.08,9.7c0,7.16,5.08,9.47,16.17,9.47v4.39h-46v-4.39c13.4-1.39,15.48-6.24,29.11-38.58L1117.59.46h4.62L1179,130.52c6.47,15,9.7,19.86,21.72,21.25v4.39ZM1113.9,33.26l-26.57,63.53h53.36Z"/><path class="cls-1" d="M1359,156.16H1234.71v-4.39c17.1-.93,20.1-4.62,20.1-22.18V30c0-17.79-2.08-21-20.1-22.41V3.23h65.38V7.62c-18.95,1.16-21.72,4.16-21.72,22V136.75c0,8.78,3.93,10.4,20.79,10.4h16.17c18.71,0,31.19-4.16,39-14.09,3-3.93,6-9,9.7-17.1h6Z"/></g></g></svg>